<svg width="423.258" height="512" enable-background="new 0 0 508.054 508.054" version="1.1" viewBox="0 0 419.996 508.054" xmlns="http://www.w3.org/2000/svg">
 <g transform="translate(-44.028)">
  <path d="m331.53 269.169h-47.627l-30.046 29.831-29.829-29.831h-47.766l-27.359 118.133c0 61.699 53.255 84.666 104.939 84.666s105.061-22.968 105.061-84.638z" fill="#8ae897"/>
  <path d="m331.53 269.169h-20.397l27.743 120.331c-.518 20.657-8.5 35.959-24.358 46.73-14.942 10.148-36.49 15.737-60.675 15.737-42.928 1.942-72.898-4.926-88.492-14.387 19.74 24.424 54.455 34.387 88.492 34.387 51.684 0 105.061-22.967 105.061-84.637z" fill="#00c278"/>
  <path d="m283.903 184.327v-15.327c0-10.225-7.679-18.644-17.581-19.84 1.629-14.518 2.581-32.041 2.581-50.91 0-50.12-6.716-90.75-15-90.75s-15 40.63-15 90.75c0 18.878.953 36.408 2.583 50.929-9.843 1.251-17.458 9.638-17.458 19.821v15.302c-39.974 14.661-60 54.698-60 54.698l12.234 30.169h47.766l29.829 29.831 30.046-29.831h47.627l12.373-30.169s-20.003-39.992-60-54.673z" fill="#a6696a"/>
  <path d="m283.903 184.327v-15.327c0-10.225-7.679-18.644-17.581-19.84 1.629-14.518 2.581-32.041 2.581-50.91 0-50.12-6.716-90.75-15-90.75s-15 40.63-15 90.75c0 18.878.953 36.408 2.583 50.929-8.193 1.042-14.825 7.034-16.825 14.883h29.195l3.354 1.65c4.108 2.021 6.708 6.205 6.702 10.783l-.01 7.83v13.963l13.108 4.812c22.431 8.233 37.591 27.14 44.583 37.584l-3.479 8.482h-42.455l-35.946 35.688 14.144 14.146 30.046-29.831h47.627l12.373-30.169s-20.003-39.992-60-54.673z" fill="#783d3e"/>
  <path d="m328.614 441.128 9.859 11.305c4.316-3.765 8.198-7.928 11.54-12.376l-11.992-9.01c-2.714 3.612-5.879 7.004-9.407 10.081z"/>
  <g fill="#fff">
   <path d="m195.772 432.515c.881.6 1.803 1.193 2.74 1.764l7.801-12.812c-.721-.439-1.429-.895-2.103-1.353-3.005-2.045-5.482-4.228-7.572-6.671l-11.4 9.749c2.927 3.421 6.471 6.558 10.534 9.323z"/>
   <path d="m173.485 390.979c.278 6.105 1.29 11.755 3.006 16.792l14.199-4.837c-1.277-3.749-2.004-7.883-2.221-12.639z"/>
   <path d="m232.219 430.801-6.776-1.629c-2.412-.611-4.761-1.313-6.982-2.085l-4.928 14.167c2.628.915 5.396 1.742 8.313 2.48l6.865 1.651z"/>
  </g>
  <path d="m198.382 232.213 11.26 9.91c10.259-11.657 23.189-18.748 32.23-22.644l-5.938-13.775c-10.453 4.505-25.453 12.761-37.552 26.509z"/>
  <path d="m422.355 336.438-57.395-60h-24.048l-1.537-6.634 12.76-31.111-1.524-3.048c-.159-.318-1.685-3.33-4.594-7.891l34.826-13.041 16.21-98.144-32.723-32.724-10.607 10.606 27.276 27.276-13.54 81.981-30.511 11.424c-4.619-5.749-10.416-12.071-17.408-18.082l-9.779 11.375c13.773 11.84 22.464 25.293 25.838 31.06l-9.099 22.184h-45.688l-26.936 26.744-26.742-26.744h-45.821l-8.987-22.164c5.291-9.023 23.668-36.932 54.284-48.161l4.918-1.804v-20.54c0-6.268 4.688-11.591 10.904-12.381l7.333-.932-.825-7.345c-1.66-14.779-2.537-32.101-2.537-50.092 0-39.83 4.01-66.015 7.5-77.696 3.49 11.681 7.5 37.866 7.5 77.696 0 17.982-.876 35.297-2.534 50.074l-.829 7.39 7.383.892c6.26.756 10.98 6.084 10.98 12.394v20.563l4.916 1.804c5.912 2.17 11.737 5.1 17.312 8.707l8.148-12.595c-4.969-3.214-10.122-5.973-15.377-8.234v-10.245c0-6.765-2.48-13.007-6.603-17.834l36.603-11.614v-20.552h-15v9.574l-31.535 10.006c1.008-12.508 1.535-26.233 1.535-40.33 0-24.637-1.596-47.861-4.494-65.393-3.856-23.337-9.073-32.857-18.005-32.857s-14.148 9.52-18.006 32.857c-2.898 17.532-4.494 40.756-4.494 65.393 0 14.1.527 27.827 1.537 40.336l-31.412-10.005v-9.581h-15v20.545l36.59 11.655c-4.115 4.827-6.59 11.06-6.59 17.8v10.217c-20.612 8.851-35.738 23.641-45.546 35.868l-30.386-11.377-13.54-81.981 27.276-27.276-10.607-10.606-32.724 32.724 16.21 98.144 34.717 13c-2.847 4.477-4.385 7.489-4.607 7.933l-1.517 3.032 12.616 31.111-1.54 6.65h-23.786l-57.395 60h-41.671v15h48.079l57.395-60h13.904l-4.819 20.808 14.613 3.385 9.023-38.961h38.698l25.436 25.438v162.172c-23.641-1.08-44.79-7.26-60.147-17.709-19.563-13.311-29.588-32.965-29.803-58.427l13.305-57.451-14.613-3.385-6.072 26.218-36.93 15.091-16.082 110.875 33.114 28.561 9.797-11.358-26.886-23.189 13.669-94.249 19.172-7.834-3.479 15.021v.857c0 30.699 12.576 55.482 36.369 71.671 19.425 13.216 46.44 20.495 76.07 20.495 19.162 0 47.078-3.017 71.248-17.387l-7.666-12.894c-14.858 8.834-34.55 14.096-56.067 15.093v-162.158l25.637-25.454h38.575l25.83 111.503c-.101 11.677-2.306 22.256-6.557 31.454l13.617 6.293c5.271-11.406 7.943-24.389 7.943-38.589v-.857l-3.513-15.164 19.454 7.949 13.669 94.249-26.886 23.189 9.797 11.358 33.114-28.561-16.081-110.876-37.214-15.207-14.356-61.972h14.165l57.395 60h48.079v-15h-41.669z"/>
 </g>
</svg>
