<svg id="Capa_1" enable-background="new 0 0 510.283 510.283" height="512" viewBox="0 0 510.283 510.283" width="512" xmlns="http://www.w3.org/2000/svg"><g><g><path d="m328.287 227.6-22.636-60.363-50.509 27.78-50.406-27.781-23.004 62.507c-10.713 29.11-12.138 60.825-4.079 90.778l68.107 168.155c3.126 8.945 15.781 8.931 18.887-.02l68.122-169.728c8.048-30.167 6.481-62.094-4.482-91.328z" fill="#ffc277"/><g fill="#ff905b"><path d="m328.287 227.6-22.636-60.363-50.509 27.78-50.406-27.781-6.694 18.19 57.09 32.422 39.906-21.948 11.249 31.7c10.963 29.234 12.53 61.161 4.483 91.328l-66.577 165.878 1.568 3.87c3.126 8.945 15.781 8.931 18.887-.02l68.122-169.728c8.047-30.168 6.48-62.094-4.483-91.328z"/><path d="m177.653 320.521c-1.957-7.274-3.344-14.652-4.185-22.071l-50.078 77.233s39.592-.399 61.958-36.164z"/><path d="m332.63 320.521c1.957-7.274 3.344-14.652 4.185-22.071l50.078 77.233s-39.592-.399-61.958-36.164z"/></g><path d="m204.736 167.236-23.004 62.507c-8.111 22.041-10.887 45.575-8.264 68.707 22.057-3.893 51.798-14.389 51.798-42.704 0-45-.921-77.703-.921-77.703z" fill="#00c278"/><path d="m305.613 167.236 23.004 62.507c8.111 22.041 10.887 45.575 8.264 68.707-22.057-3.893-51.798-14.389-51.798-42.704 0-45 .921-77.703.921-77.703z" fill="#00c278"/><path d="m225.267 98.35h59.875l30 63.667-60 33-59.875-33z" fill="#8ae897"/><path d="m285.142 98.35h-22l25.899 55.197-54.996 29.843 21.097 11.627 60-33z" fill="#00c278"/><path d="m285.142 98.35h-59.875v-21.271c0-11.046 8.954-20 20-20h19.875c11.046 0 20 8.954 20 20z" fill="#00c278"/></g><g><path d="m269.495 450.187h15.164v15h-15.164z" transform="matrix(.373 -.928 .928 .373 -250.886 544.315)"/><path d="m399.838 336.369 10.607-10.607-27.804-27.803v-76.021l-63.025-38.817-4.665-12.44 9.978-5.488-12.308-26.121 55.02-28.718v-74.12l26.015-13.8-7.029-13.252-33.985 18.028v74.052l-46.419 24.23-13.581-28.821v-19.592c0-10.57-5.999-19.761-14.767-24.363 2.989-30.699 37.035-37.685 38.548-37.978l-1.406-7.367-1.386-7.371c-.518.098-12.812 2.475-25.13 10.454-14.7 9.523-23.369 22.949-25.392 39.125h-15.936c-2.022-16.176-10.692-29.602-25.392-39.125-12.316-7.979-24.611-10.356-25.129-10.454l-2.771 14.742c.098.019 10.038 2.012 19.745 8.301 11.332 7.341 17.629 17.333 18.799 29.729-8.709 4.62-14.658 13.78-14.658 24.307v19.593l-4.311 9.147 13.568 6.395 2.999-6.363h50.361l24.959 52.97-50.199 27.635-50.094-27.609 14.904-31.632-13.568-6.395-2.227 4.726-46.519-24.282v-74.053l-33.984-18.028-7.029 13.252 26.015 13.8v74.12l55.12 28.771-12.281 26.062 9.99 5.506-4.506 12.244-63.324 39.001v76.021l-27.804 27.803 10.607 10.607 32.196-32.197v-73.854l39.941-24.6-7.888 21.435c-.488 1.325-.951 2.656-1.402 3.99-.07.208-.14.415-.209.622-7.027 21.05-9.503 43.046-7.376 64.871l-48.609 74.968c-1.503 2.317-1.61 5.273-.278 7.694.008.014.018.026.025.04l-.003.001 55.41 99.291-26.561 19.579 8.9 12.074 37.199-27.421-56.425-101.111c12.406-2.449 32.17-9.089 48.027-27.083l55.358 136.677c2.539 7.016 8.972 11.533 16.449 11.532h.021c7.486-.008 13.92-4.543 16.445-11.571l3.778-9.411-13.92-5.588-3.836 9.556-.125.335c-.481 1.387-1.549 1.679-2.359 1.68-.001 0-.002 0-.004 0-.81 0-1.875-.291-2.358-1.675l-.061-.172-23.404-57.784h51.436l-2.3 5.73 13.92 5.588 34.195-85.199c15.901 18.221 35.815 24.924 48.29 27.386l-56.425 101.111 37.199 27.421 8.9-12.074-26.561-19.579 55.41-99.291-.003-.001c.008-.014.018-.026.025-.04 1.332-2.421 1.225-5.377-.278-7.694l-48.593-74.943c.281-2.919.478-5.845.594-8.775 1.052-21.281-2.256-42.595-9.878-62.919l-7.101-18.937 39.434 24.288v73.854zm-206.687 2.438h31.99v-15h-38.065l-2.297-5.671c-.448-1.684-.859-3.373-1.244-5.065-.647-2.861-1.188-5.76-1.659-8.672 11.386-2.604 20.978-6.362 28.666-11.153h89.265c7.643 4.763 17.17 8.504 28.47 11.105-.706 4.086-1.572 8.16-2.639 12.21l-2.908 7.245h-82.588v15h76.568l-11.791 29.377h-99.869zm-8.41-93.053c1.083-4.219 2.338-8.394 3.747-12.515 3.594-10.515 7.638-20.893 11.476-31.321 2.932-7.967 5.864-15.934 8.796-23.901l8.196 4.517c.243 10.278.812 38.119.812 73.212 0 19.675-18.895 29.114-37.534 33.639-.254.062.96-25.433 1.327-27.92.779-5.29 1.851-10.533 3.18-15.711zm108.653-63.216 8.2-4.51 19.986 54.305c6.159 16.737 9.106 34.676 8.703 52.534-.05 1.502-.11 3.005-.208 4.507-18.627-4.527-37.493-13.968-37.493-33.628 0-35.075.568-62.923.812-73.208zm-60.627-91.687v-13.772c0-6.893 5.607-12.5 12.5-12.5h19.875c6.893 0 12.5 5.607 12.5 12.5v13.771h-44.875zm45.443 100.038c-.27 13.668-.628 37-.628 64.857 0 8.382 2.204 15.915 6.454 22.5h-57.723c4.25-6.585 6.454-14.119 6.454-22.5 0-27.848-.357-51.174-.628-64.844l22.999 12.676zm-107.431 132.422c1.728 5.226 4.08 10.29 6.135 15.364-11.369 16.229-26.638 23.532-37.979 26.82l30.466-46.987c.022.091.047.181.069.272.371 1.527.814 3.036 1.309 4.531zm116.054 89.935h-63.532l-12.176-30.062h87.774zm46.537-74.572 6.211-15.337c.115-.283.212-.572.291-.867.354-1.312.69-2.634 1.01-3.961l30.414 46.906c-11.356-3.327-26.633-10.647-37.926-26.741z"/><g><path d="m235.184 129.434h14.553v14.999h-14.553z" fill="#fff" transform="matrix(.426 -.905 .905 .426 15.25 297.908)"/></g></g></g></svg>